<svg xmlns="http://www.w3.org/2000/svg" xmlns:xlink="http://www.w3.org/1999/xlink" width="50" zoomAndPan="magnify" viewBox="0 0 37.5 37.499999" height="50" preserveAspectRatio="xMidYMid meet" version="1.2"><defs><clipPath id="ec81782d88"><path d="M 0 0 L 37.007812 0 L 37.007812 37.007812 L 0 37.007812 Z M 0 0 "/></clipPath><clipPath id="c98813fc32"><path d="M 10 17 L 26 17 L 26 33.304688 L 10 33.304688 Z M 10 17 "/></clipPath><clipPath id="ebda9232b3"><path d="M 1.339844 9 L 15 9 L 15 24 L 1.339844 24 Z M 1.339844 9 "/></clipPath><clipPath id="aa6b3bcf2e"><path d="M 15 3.699219 L 35.386719 3.699219 L 35.386719 24 L 15 24 Z M 15 3.699219 "/></clipPath></defs><g id="2f0a465db4"><g clip-rule="nonzero" clip-path="url(#ec81782d88)"><path style=" stroke:none;fill-rule:nonzero;fill:#ffffff;fill-opacity:1;" d="M 0 0 L 37.007812 0 L 37.007812 37.007812 L 0 37.007812 Z M 0 0 "/><path style=" stroke:none;fill-rule:nonzero;fill:#ffffff;fill-opacity:1;" d="M 0 0 L 37.007812 0 L 37.007812 37.007812 L 0 37.007812 Z M 0 0 "/></g><g clip-rule="nonzero" clip-path="url(#c98813fc32)"><path style=" stroke:none;fill-rule:nonzero;fill:#000000;fill-opacity:1;" d="M 10.734375 25.605469 C 10.734375 29.847656 14.15625 33.296875 18.363281 33.296875 C 22.570312 33.296875 25.996094 29.847656 25.996094 25.605469 C 25.996094 21.363281 22.570312 17.910156 18.363281 17.910156 C 14.15625 17.910156 10.734375 21.363281 10.734375 25.605469 Z M 18.363281 19.09375 C 21.925781 19.09375 24.820312 22.015625 24.820312 25.605469 C 24.820312 29.195312 21.925781 32.113281 18.363281 32.113281 C 14.804688 32.113281 11.90625 29.195312 11.90625 25.605469 C 11.90625 22.015625 14.804688 19.09375 18.363281 19.09375 Z M 18.363281 19.09375 "/></g><path style=" stroke:none;fill-rule:nonzero;fill:#000000;fill-opacity:1;" d="M 16.015625 27.378906 C 15.691406 27.378906 15.429688 27.644531 15.429688 27.972656 C 15.429688 28.300781 15.691406 28.5625 16.015625 28.5625 L 17.777344 28.5625 L 17.777344 29.15625 C 17.777344 29.484375 18.039062 29.746094 18.363281 29.746094 C 18.6875 29.746094 18.949219 29.484375 18.949219 29.15625 L 18.949219 28.5625 L 19.539062 28.5625 C 20.507812 28.5625 21.300781 27.765625 21.300781 26.789062 C 21.300781 25.808594 20.507812 25.011719 19.539062 25.011719 L 18.949219 25.011719 L 18.949219 23.828125 L 20.710938 23.828125 C 21.035156 23.828125 21.300781 23.566406 21.300781 23.238281 C 21.300781 22.910156 21.035156 22.644531 20.710938 22.644531 L 18.949219 22.644531 L 18.949219 22.054688 C 18.949219 21.726562 18.6875 21.460938 18.363281 21.460938 C 18.039062 21.460938 17.777344 21.726562 17.777344 22.054688 L 17.777344 22.644531 L 17.191406 22.644531 C 16.21875 22.644531 15.429688 23.441406 15.429688 24.421875 C 15.429688 25.398438 16.21875 26.195312 17.191406 26.195312 L 17.777344 26.195312 L 17.777344 27.378906 Z M 17.191406 25.011719 C 16.867188 25.011719 16.601562 24.746094 16.601562 24.421875 C 16.601562 24.09375 16.867188 23.828125 17.191406 23.828125 L 17.777344 23.828125 L 17.777344 25.011719 Z M 18.949219 26.195312 L 19.539062 26.195312 C 19.863281 26.195312 20.125 26.460938 20.125 26.789062 C 20.125 27.113281 19.863281 27.378906 19.539062 27.378906 L 18.949219 27.378906 Z M 18.949219 26.195312 "/><path style=" stroke:none;fill-rule:nonzero;fill:#000000;fill-opacity:1;" d="M 28.929688 27.378906 L 27.460938 27.378906 C 27.136719 27.378906 26.875 27.644531 26.875 27.972656 C 26.875 28.300781 27.136719 28.5625 27.460938 28.5625 L 28.929688 28.5625 C 29.902344 28.5625 30.691406 27.765625 30.691406 26.789062 C 30.691406 25.808594 29.902344 25.011719 28.929688 25.011719 L 27.753906 25.011719 C 27.429688 25.011719 27.167969 25.277344 27.167969 25.605469 C 27.167969 25.933594 27.429688 26.195312 27.753906 26.195312 L 28.929688 26.195312 C 29.253906 26.195312 29.515625 26.460938 29.515625 26.789062 C 29.515625 27.113281 29.253906 27.378906 28.929688 27.378906 Z M 28.929688 27.378906 "/><path style=" stroke:none;fill-rule:nonzero;fill:#000000;fill-opacity:1;" d="M 7.796875 26.195312 L 8.972656 26.195312 C 9.296875 26.195312 9.558594 25.933594 9.558594 25.605469 C 9.558594 25.277344 9.296875 25.011719 8.972656 25.011719 L 7.796875 25.011719 C 6.828125 25.011719 6.035156 25.808594 6.035156 26.789062 C 6.035156 27.765625 6.828125 28.5625 7.796875 28.5625 L 9.265625 28.5625 C 9.589844 28.5625 9.851562 28.300781 9.851562 27.972656 C 9.851562 27.644531 9.589844 27.378906 9.265625 27.378906 L 7.796875 27.378906 C 7.472656 27.378906 7.210938 27.113281 7.210938 26.789062 C 7.210938 26.460938 7.472656 26.195312 7.796875 26.195312 Z M 7.796875 26.195312 "/><g clip-rule="nonzero" clip-path="url(#ebda9232b3)"><path style=" stroke:none;fill-rule:nonzero;fill:#000000;fill-opacity:1;" d="M 4.277344 15.542969 C 4.292969 15.542969 4.304688 15.539062 4.320312 15.539062 L 6.050781 23.367188 C 6.113281 23.640625 6.355469 23.828125 6.625 23.828125 C 6.664062 23.828125 6.707031 23.824219 6.75 23.816406 C 7.066406 23.746094 7.265625 23.425781 7.195312 23.109375 L 5.46875 15.285156 C 6.105469 14.996094 6.613281 14.488281 6.914062 13.855469 L 13.523438 15.527344 C 13.574219 15.539062 13.621094 15.542969 13.667969 15.542969 C 13.875 15.542969 14.070312 15.433594 14.175781 15.246094 L 14.695312 14.335938 C 14.855469 14.050781 14.757812 13.6875 14.476562 13.527344 C 14.195312 13.363281 13.835938 13.464844 13.675781 13.746094 L 13.378906 14.269531 L 7.199219 12.707031 C 7.199219 12.664062 7.210938 12.628906 7.210938 12.585938 C 7.210938 10.953125 5.894531 9.625 4.277344 9.625 C 2.65625 9.625 1.339844 10.953125 1.339844 12.585938 C 1.339844 14.21875 2.65625 15.542969 4.277344 15.542969 Z M 4.277344 10.808594 C 5.246094 10.808594 6.035156 11.605469 6.035156 12.585938 C 6.035156 13.429688 5.445312 14.136719 4.660156 14.316406 C 4.65625 14.316406 4.65625 14.316406 4.652344 14.316406 C 4.648438 14.316406 4.644531 14.320312 4.640625 14.320312 C 4.523438 14.347656 4.402344 14.359375 4.277344 14.359375 C 3.304688 14.359375 2.515625 13.5625 2.515625 12.585938 C 2.515625 11.605469 3.304688 10.808594 4.277344 10.808594 Z M 4.277344 10.808594 "/></g><g clip-rule="nonzero" clip-path="url(#aa6b3bcf2e)"><path style=" stroke:none;fill-rule:nonzero;fill:#000000;fill-opacity:1;" d="M 32.453125 9.625 C 30.832031 9.625 29.515625 10.953125 29.515625 12.585938 C 29.515625 12.628906 29.527344 12.664062 29.527344 12.707031 L 23.347656 14.269531 L 20.289062 8.882812 C 20.902344 8.339844 21.300781 7.550781 21.300781 6.667969 C 21.300781 5.035156 19.980469 3.707031 18.363281 3.707031 C 16.746094 3.707031 15.429688 5.035156 15.429688 6.667969 C 15.429688 7.554688 15.824219 8.339844 16.4375 8.882812 L 16.011719 9.640625 C 15.851562 9.925781 15.949219 10.285156 16.230469 10.449219 C 16.324219 10.5 16.421875 10.527344 16.519531 10.527344 C 16.722656 10.527344 16.921875 10.417969 17.03125 10.226562 L 17.457031 9.46875 C 17.746094 9.5625 18.046875 9.625 18.363281 9.625 C 18.683594 9.625 18.984375 9.5625 19.269531 9.46875 L 22.550781 15.246094 C 22.65625 15.433594 22.851562 15.542969 23.058594 15.542969 C 23.109375 15.542969 23.15625 15.539062 23.203125 15.527344 L 29.8125 13.855469 C 30.113281 14.488281 30.625 14.996094 31.257812 15.285156 L 29.53125 23.109375 C 29.460938 23.425781 29.660156 23.746094 29.976562 23.816406 C 30.019531 23.824219 30.0625 23.828125 30.105469 23.828125 C 30.375 23.828125 30.617188 23.640625 30.675781 23.367188 L 32.40625 15.539062 C 32.421875 15.539062 32.4375 15.542969 32.453125 15.542969 C 34.070312 15.542969 35.386719 14.21875 35.386719 12.585938 C 35.386719 10.953125 34.070312 9.625 32.453125 9.625 Z M 16.601562 6.667969 C 16.601562 5.6875 17.394531 4.890625 18.363281 4.890625 C 19.335938 4.890625 20.125 5.6875 20.125 6.667969 C 20.125 7.648438 19.335938 8.441406 18.363281 8.441406 C 17.394531 8.441406 16.601562 7.648438 16.601562 6.667969 Z M 32.453125 14.359375 C 32.328125 14.359375 32.207031 14.347656 32.089844 14.320312 C 32.082031 14.320312 32.078125 14.316406 32.074219 14.316406 C 32.074219 14.316406 32.070312 14.316406 32.070312 14.316406 C 31.28125 14.136719 30.691406 13.429688 30.691406 12.585938 C 30.691406 11.605469 31.480469 10.808594 32.453125 10.808594 C 33.421875 10.808594 34.210938 11.605469 34.210938 12.585938 C 34.210938 13.5625 33.421875 14.359375 32.453125 14.359375 Z M 32.453125 14.359375 "/></g><path style=" stroke:none;fill-rule:nonzero;fill:#000000;fill-opacity:1;" d="M 15.941406 11.992188 C 15.941406 12.15625 15.882812 12.296875 15.769531 12.410156 C 15.65625 12.527344 15.515625 12.585938 15.355469 12.585938 C 15.191406 12.585938 15.054688 12.527344 14.941406 12.410156 C 14.824219 12.296875 14.769531 12.15625 14.769531 11.992188 C 14.769531 11.832031 14.824219 11.691406 14.941406 11.574219 C 15.054688 11.460938 15.191406 11.402344 15.355469 11.402344 C 15.515625 11.402344 15.65625 11.460938 15.769531 11.574219 C 15.882812 11.691406 15.941406 11.832031 15.941406 11.992188 Z M 15.941406 11.992188 "/></g></svg>