<svg xmlns="http://www.w3.org/2000/svg" xmlns:xlink="http://www.w3.org/1999/xlink" width="50" zoomAndPan="magnify" viewBox="0 0 37.5 37.499999" height="50" preserveAspectRatio="xMidYMid meet" version="1.2"><defs><clipPath id="594fc25849"><path d="M 0 0 L 37.007812 0 L 37.007812 37.007812 L 0 37.007812 Z M 0 0 "/></clipPath><clipPath id="50e77a73fd"><path d="M 1.109375 1.109375 L 35.894531 1.109375 L 35.894531 35.894531 L 1.109375 35.894531 Z M 1.109375 1.109375 "/></clipPath></defs><g id="37c655f78d"><g clip-rule="nonzero" clip-path="url(#594fc25849)"><path style=" stroke:none;fill-rule:nonzero;fill:#ffffff;fill-opacity:1;" d="M 0 0 L 37.007812 0 L 37.007812 37.007812 L 0 37.007812 Z M 0 0 "/><path style=" stroke:none;fill-rule:nonzero;fill:#ffffff;fill-opacity:1;" d="M 0 0 L 37.007812 0 L 37.007812 37.007812 L 0 37.007812 Z M 0 0 "/></g><g clip-rule="nonzero" clip-path="url(#50e77a73fd)"><path style=" stroke:none;fill-rule:nonzero;fill:#ffffff;fill-opacity:1;" d="M 35.894531 18.503906 C 35.894531 19.074219 35.867188 19.640625 35.8125 20.207031 C 35.757812 20.773438 35.671875 21.335938 35.5625 21.898438 C 35.449219 22.457031 35.3125 23.007812 35.148438 23.550781 C 34.980469 24.097656 34.789062 24.632812 34.574219 25.160156 C 34.355469 25.6875 34.109375 26.199219 33.84375 26.703125 C 33.574219 27.203125 33.28125 27.691406 32.964844 28.167969 C 32.648438 28.640625 32.308594 29.097656 31.949219 29.539062 C 31.585938 29.976562 31.203125 30.398438 30.800781 30.800781 C 30.398438 31.203125 29.976562 31.585938 29.539062 31.949219 C 29.097656 32.308594 28.640625 32.648438 28.167969 32.964844 C 27.691406 33.28125 27.203125 33.574219 26.703125 33.84375 C 26.199219 34.109375 25.6875 34.355469 25.160156 34.574219 C 24.632812 34.789062 24.097656 34.980469 23.550781 35.148438 C 23.007812 35.3125 22.457031 35.449219 21.898438 35.5625 C 21.335938 35.671875 20.773438 35.757812 20.207031 35.8125 C 19.640625 35.867188 19.074219 35.894531 18.503906 35.894531 C 17.933594 35.894531 17.367188 35.867188 16.796875 35.8125 C 16.230469 35.757812 15.667969 35.671875 15.109375 35.5625 C 14.550781 35.449219 14 35.3125 13.453125 35.148438 C 12.910156 34.980469 12.375 34.789062 11.847656 34.574219 C 11.320312 34.355469 10.804688 34.109375 10.304688 33.84375 C 9.800781 33.574219 9.3125 33.28125 8.839844 32.964844 C 8.367188 32.648438 7.910156 32.308594 7.46875 31.949219 C 7.027344 31.585938 6.605469 31.203125 6.203125 30.800781 C 5.800781 30.398438 5.417969 29.976562 5.058594 29.539062 C 4.695312 29.097656 4.359375 28.640625 4.042969 28.167969 C 3.726562 27.691406 3.433594 27.203125 3.164062 26.703125 C 2.894531 26.199219 2.652344 25.6875 2.433594 25.160156 C 2.214844 24.632812 2.023438 24.097656 1.859375 23.550781 C 1.695312 23.007812 1.554688 22.457031 1.445312 21.898438 C 1.332031 21.335938 1.25 20.773438 1.195312 20.207031 C 1.136719 19.640625 1.109375 19.074219 1.109375 18.503906 C 1.109375 17.933594 1.136719 17.367188 1.195312 16.796875 C 1.25 16.230469 1.332031 15.667969 1.445312 15.109375 C 1.554688 14.550781 1.695312 14 1.859375 13.453125 C 2.023438 12.910156 2.214844 12.375 2.433594 11.847656 C 2.652344 11.320312 2.894531 10.804688 3.164062 10.304688 C 3.433594 9.800781 3.726562 9.3125 4.042969 8.839844 C 4.359375 8.367188 4.695312 7.910156 5.058594 7.46875 C 5.417969 7.027344 5.800781 6.605469 6.203125 6.203125 C 6.605469 5.800781 7.027344 5.417969 7.46875 5.058594 C 7.910156 4.695312 8.367188 4.359375 8.839844 4.042969 C 9.3125 3.726562 9.800781 3.433594 10.304688 3.164062 C 10.804688 2.894531 11.320312 2.652344 11.847656 2.433594 C 12.375 2.214844 12.910156 2.023438 13.453125 1.859375 C 14 1.695312 14.550781 1.554688 15.109375 1.445312 C 15.667969 1.332031 16.230469 1.25 16.796875 1.195312 C 17.367188 1.136719 17.933594 1.109375 18.503906 1.109375 C 19.074219 1.109375 19.640625 1.136719 20.207031 1.195312 C 20.773438 1.25 21.335938 1.332031 21.898438 1.445312 C 22.457031 1.554688 23.007812 1.695312 23.550781 1.859375 C 24.097656 2.023438 24.632812 2.214844 25.160156 2.433594 C 25.6875 2.652344 26.199219 2.894531 26.703125 3.164062 C 27.203125 3.433594 27.691406 3.726562 28.167969 4.042969 C 28.640625 4.359375 29.097656 4.695312 29.539062 5.058594 C 29.976562 5.417969 30.398438 5.800781 30.800781 6.203125 C 31.203125 6.605469 31.585938 7.027344 31.949219 7.46875 C 32.308594 7.910156 32.648438 8.367188 32.964844 8.839844 C 33.28125 9.3125 33.574219 9.800781 33.84375 10.304688 C 34.109375 10.804688 34.355469 11.320312 34.574219 11.847656 C 34.789062 12.375 34.980469 12.910156 35.148438 13.453125 C 35.3125 14 35.449219 14.550781 35.5625 15.109375 C 35.671875 15.667969 35.757812 16.230469 35.8125 16.796875 C 35.867188 17.367188 35.894531 17.933594 35.894531 18.503906 Z M 35.894531 18.503906 "/></g><path style=" stroke:none;fill-rule:nonzero;fill:#000000;fill-opacity:1;" d="M 18.796875 15.246094 C 18.871094 15.246094 18.949219 15.21875 19.003906 15.164062 L 21.273438 12.984375 L 23.625 14.835938 C 23.734375 14.921875 23.886719 14.925781 24 14.835938 L 27.316406 12.253906 L 27.199219 13.800781 C 27.1875 13.96875 27.3125 14.113281 27.476562 14.128906 C 27.484375 14.128906 27.492188 14.128906 27.5 14.128906 C 27.660156 14.128906 27.792969 14.003906 27.804688 13.847656 L 27.980469 11.617188 C 27.984375 11.53125 27.957031 11.457031 27.910156 11.394531 C 27.855469 11.332031 27.785156 11.296875 27.699219 11.289062 L 25.300781 11.113281 C 25.132812 11.101562 24.988281 11.226562 24.972656 11.394531 C 24.960938 11.558594 25.085938 11.707031 25.25 11.71875 L 26.867188 11.839844 L 23.820312 14.210938 L 21.445312 12.339844 C 21.328125 12.25 21.152344 12.253906 21.050781 12.359375 L 18.585938 14.71875 C 18.496094 14.800781 18.46875 14.933594 18.515625 15.050781 C 18.558594 15.171875 18.671875 15.246094 18.796875 15.246094 Z M 18.796875 15.246094 "/><path style=" stroke:none;fill-rule:nonzero;fill:#000000;fill-opacity:1;" d="M 28.703125 25.230469 L 28.054688 25.230469 L 28.054688 16.304688 C 28.046875 16.132812 27.902344 15.992188 27.734375 15.992188 L 24.996094 15.992188 C 24.820312 15.992188 24.679688 16.132812 24.675781 16.304688 L 24.675781 25.238281 L 23.066406 25.238281 L 23.066406 17.980469 C 23.058594 17.808594 22.921875 17.675781 22.746094 17.675781 L 20.007812 17.675781 C 19.839844 17.675781 19.6875 17.808594 19.6875 17.980469 L 19.6875 25.230469 L 18.078125 25.230469 L 18.078125 21.113281 C 18.070312 20.9375 17.933594 20.804688 17.757812 20.800781 L 15.019531 20.800781 C 14.851562 20.800781 14.691406 20.945312 14.691406 21.113281 L 14.691406 25.230469 L 11.566406 25.230469 L 11.566406 23.714844 L 11.894531 23.714844 C 13.328125 23.714844 14.476562 22.644531 14.476562 21.34375 L 14.476562 20.847656 C 14.476562 20.679688 14.355469 20.542969 14.191406 20.542969 L 13.640625 20.542969 C 12.792969 20.542969 12.039062 20.917969 11.566406 21.488281 L 11.566406 19.976562 L 11.894531 19.976562 C 13.328125 19.976562 14.476562 18.921875 14.476562 17.621094 L 14.476562 17.125 C 14.476562 16.957031 14.355469 16.8125 14.191406 16.8125 L 13.640625 16.8125 C 12.839844 16.804688 12.082031 17.160156 11.566406 17.773438 L 11.566406 16.25 L 11.894531 16.25 C 13.328125 16.25 14.476562 15.207031 14.476562 13.898438 L 14.476562 13.402344 C 14.480469 13.328125 14.445312 13.25 14.398438 13.203125 C 14.34375 13.144531 14.273438 13.117188 14.195312 13.125 L 13.648438 13.125 C 12.796875 13.125 12.046875 13.480469 11.574219 14.050781 L 11.574219 12.582031 C 11.574219 12.414062 11.433594 12.277344 11.269531 12.277344 C 11.101562 12.277344 10.960938 12.414062 10.960938 12.582031 L 10.960938 14.042969 C 10.914062 13.980469 10.855469 13.925781 10.792969 13.871094 C 10.300781 13.375 9.589844 13.070312 8.875 13.117188 L 8.324219 13.117188 C 8.15625 13.117188 8.011719 13.238281 8.011719 13.402344 L 8.011719 13.898438 C 8.011719 15.199219 9.1875 16.25 10.621094 16.25 L 10.960938 16.25 L 10.960938 17.773438 C 10.914062 17.710938 10.855469 17.648438 10.792969 17.59375 C 10.285156 17.097656 9.605469 16.820312 8.894531 16.820312 C 8.886719 16.820312 8.875 16.8125 8.867188 16.8125 L 8.316406 16.8125 C 8.144531 16.820312 8.011719 16.957031 8.003906 17.125 L 8.003906 17.621094 C 8.003906 18.921875 9.179688 19.976562 10.613281 19.976562 L 10.953125 19.976562 L 10.953125 21.488281 C 10.90625 21.425781 10.851562 21.363281 10.789062 21.308594 C 10.28125 20.8125 9.597656 20.542969 8.886719 20.542969 L 8.3125 20.542969 C 8.144531 20.542969 8.003906 20.675781 7.996094 20.847656 L 7.996094 21.34375 C 7.996094 22.644531 9.171875 23.714844 10.605469 23.714844 L 10.949219 23.714844 L 10.949219 25.230469 L 9.339844 25.230469 C 9.171875 25.230469 9.035156 25.371094 9.035156 25.535156 C 9.035156 25.703125 9.171875 25.84375 9.339844 25.84375 L 11.078125 25.84375 C 11.128906 25.878906 11.183594 25.898438 11.246094 25.890625 C 11.308594 25.898438 11.363281 25.878906 11.414062 25.84375 L 28.703125 25.84375 C 28.871094 25.84375 29.007812 25.703125 29.007812 25.535156 C 29 25.371094 28.871094 25.230469 28.703125 25.230469 Z M 11.652344 22.90625 C 11.652344 21.941406 12.539062 21.152344 13.640625 21.152344 L 13.863281 21.152344 L 13.863281 21.34375 C 13.863281 22.308594 12.984375 23.109375 11.886719 23.109375 L 11.652344 23.109375 Z M 11.652344 19.191406 C 11.652344 18.226562 12.539062 17.425781 13.640625 17.425781 L 13.863281 17.425781 L 13.863281 17.625 C 13.863281 18.59375 12.984375 19.378906 11.886719 19.378906 L 11.652344 19.378906 Z M 11.652344 15.46875 C 11.652344 14.503906 12.539062 13.730469 13.640625 13.730469 L 13.863281 13.730469 L 13.863281 13.898438 C 13.863281 14.863281 12.984375 15.636719 11.886719 15.636719 L 11.652344 15.636719 Z M 10.863281 15.644531 L 10.613281 15.644531 C 9.515625 15.644531 8.609375 14.871094 8.609375 13.90625 L 8.609375 13.738281 L 8.867188 13.738281 C 9.429688 13.695312 9.980469 13.9375 10.363281 14.316406 C 10.691406 14.640625 10.871094 15.046875 10.871094 15.476562 L 10.871094 15.644531 Z M 10.863281 19.371094 L 10.613281 19.371094 C 9.515625 19.371094 8.609375 18.585938 8.609375 17.621094 L 8.609375 17.417969 L 8.867188 17.417969 C 9.429688 17.417969 9.980469 17.632812 10.363281 18.007812 C 10.683594 18.316406 10.863281 18.738281 10.871094 19.183594 L 10.871094 19.371094 Z M 10.863281 23.109375 L 10.613281 23.109375 C 9.515625 23.109375 8.609375 22.308594 8.609375 21.34375 L 8.609375 21.152344 L 8.882812 21.152344 C 9.429688 21.148438 9.960938 21.363281 10.355469 21.738281 C 10.683594 22.066406 10.863281 22.476562 10.863281 22.90625 Z M 15.296875 25.230469 L 15.296875 21.410156 L 17.464844 21.410156 L 17.464844 25.230469 Z M 20.285156 25.230469 L 20.285156 18.289062 L 22.453125 18.289062 L 22.453125 25.230469 Z M 25.28125 25.230469 L 25.28125 16.597656 L 27.449219 16.597656 L 27.449219 25.238281 Z M 25.28125 25.230469 "/></g></svg>