<svg xmlns="http://www.w3.org/2000/svg" xmlns:xlink="http://www.w3.org/1999/xlink" width="50" zoomAndPan="magnify" viewBox="0 0 37.5 37.499999" height="50" preserveAspectRatio="xMidYMid meet" version="1.2"><defs><clipPath id="28994beef5"><path d="M 0 0 L 37.007812 0 L 37.007812 37.007812 L 0 37.007812 Z M 0 0 "/></clipPath><clipPath id="0a17be7b62"><path d="M 0.6875 1.800781 L 36.214844 1.800781 L 36.214844 35 L 0.6875 35 Z M 0.6875 1.800781 "/></clipPath></defs><g id="c39068d589"><g clip-rule="nonzero" clip-path="url(#28994beef5)"><path style=" stroke:none;fill-rule:nonzero;fill:#ffffff;fill-opacity:1;" d="M 0 0 L 37.007812 0 L 37.007812 37.007812 L 0 37.007812 Z M 0 0 "/><path style=" stroke:none;fill-rule:nonzero;fill:#ffffff;fill-opacity:1;" d="M 0 0 L 37.007812 0 L 37.007812 37.007812 L 0 37.007812 Z M 0 0 "/></g><g clip-rule="nonzero" clip-path="url(#0a17be7b62)"><path style=" stroke:none;fill-rule:evenodd;fill:#000000;fill-opacity:1;" d="M 10.277344 30.632812 L 10.824219 31.597656 C 11.230469 32.324219 10.972656 33.25 10.25 33.660156 L 8.453125 34.679688 C 8.449219 34.679688 8.449219 34.679688 8.449219 34.679688 C 7.722656 35.089844 6.796875 34.828125 6.386719 34.105469 L 1.097656 24.757812 C 0.6875 24.03125 0.945312 23.101562 1.667969 22.691406 L 3.46875 21.671875 C 4.191406 21.265625 5.121094 21.519531 5.53125 22.246094 L 5.980469 23.039062 L 10.753906 20.277344 C 12.152344 19.46875 13.582031 18.9375 15.117188 19.433594 C 15.464844 19.546875 15.867188 19.691406 16.304688 19.851562 C 16.058594 19.0625 15.925781 18.226562 15.925781 17.359375 C 15.925781 15.621094 16.460938 14 17.378906 12.65625 C 17.214844 12.625 17.046875 12.59375 16.875 12.5625 C 16.605469 12.515625 16.410156 12.277344 16.410156 12.003906 L 16.410156 6.582031 L 13.4375 5.789062 C 13.1875 5.722656 13.015625 5.5 13.015625 5.242188 C 13.015625 4.980469 13.1875 4.757812 13.4375 4.691406 L 24.167969 1.839844 C 24.261719 1.816406 24.363281 1.816406 24.460938 1.839844 L 35.1875 4.691406 C 35.4375 4.757812 35.609375 4.980469 35.609375 5.242188 C 35.609375 5.5 35.4375 5.722656 35.1875 5.789062 L 34.960938 5.851562 L 34.960938 9.214844 L 35.910156 9.765625 C 36.085938 9.867188 36.191406 10.054688 36.191406 10.257812 L 36.191406 14.019531 C 36.191406 14.234375 36.070312 14.429688 35.878906 14.527344 C 35.683594 14.625 35.453125 14.601562 35.28125 14.472656 L 34.390625 13.804688 L 33.5 14.472656 C 33.328125 14.601562 33.097656 14.625 32.90625 14.527344 C 32.710938 14.429688 32.589844 14.234375 32.589844 14.019531 L 32.589844 10.257812 C 32.589844 10.054688 32.699219 9.867188 32.875 9.765625 L 33.820312 9.214844 L 33.820312 6.152344 L 32.214844 6.582031 L 32.214844 12.003906 C 32.214844 12.277344 32.019531 12.515625 31.75 12.5625 C 31.578125 12.59375 31.410156 12.625 31.25 12.65625 C 32.164062 14 32.699219 15.621094 32.699219 17.359375 C 32.699219 18.328125 32.535156 19.257812 32.230469 20.125 C 33.566406 19.703125 34.523438 19.886719 35.144531 20.300781 C 35.875 20.792969 36.214844 21.632812 36.191406 22.457031 C 36.167969 23.289062 35.777344 24.082031 35.125 24.484375 L 23.484375 31.652344 C 22.277344 32.398438 20.953125 32.574219 19.582031 32.207031 C 19.582031 32.207031 11.363281 30.003906 11.363281 30.003906 Z M 6.542969 24.03125 L 9.714844 29.640625 L 11 28.902344 C 11.128906 28.824219 11.285156 28.804688 11.433594 28.84375 L 19.875 31.105469 C 20.933594 31.390625 21.953125 31.257812 22.886719 30.683594 L 34.527344 23.515625 C 34.847656 23.316406 35.015625 22.925781 35.046875 22.519531 C 35.097656 21.898438 34.804688 21.214844 34.039062 21.054688 C 33.347656 20.910156 32.375 21.136719 31.050781 21.90625 L 24.636719 25.644531 C 23.621094 26.234375 22.558594 26.398438 21.398438 26.210938 L 20.601562 26.082031 C 20.59375 26.082031 20.585938 26.082031 20.578125 26.078125 C 19.132812 25.78125 17.789062 25.34375 16.300781 24.945312 C 16 24.863281 15.820312 24.550781 15.898438 24.246094 C 15.980469 23.941406 16.292969 23.761719 16.597656 23.84375 C 18.054688 24.238281 19.371094 24.664062 20.785156 24.957031 C 21.542969 25.042969 22.09375 24.726562 22.265625 24.078125 C 22.445312 23.417969 22.035156 22.78125 21.394531 22.554688 C 18.824219 22.085938 16.308594 21.019531 14.765625 20.519531 C 13.546875 20.121094 12.429688 20.621094 11.324219 21.261719 Z M 17.714844 20.355469 C 18.910156 20.769531 20.265625 21.195312 21.636719 21.441406 C 21.664062 21.449219 21.6875 21.453125 21.710938 21.460938 C 22.949219 21.863281 23.703125 23.113281 23.367188 24.371094 C 23.300781 24.625 23.203125 24.851562 23.082031 25.054688 C 23.417969 24.976562 23.742188 24.84375 24.0625 24.660156 L 30.480469 20.921875 C 30.550781 20.882812 30.617188 20.84375 30.6875 20.804688 C 31.242188 19.777344 31.558594 18.605469 31.558594 17.359375 C 31.558594 15.675781 30.980469 14.121094 30.007812 12.890625 C 28.316406 13.210938 27.164062 13.445312 26.257812 13.59375 C 26.625 13.882812 26.929688 14.269531 27.140625 14.765625 C 27.261719 15.054688 27.125 15.386719 26.835938 15.511719 C 26.546875 15.632812 26.210938 15.496094 26.089844 15.207031 C 25.632812 14.121094 24.421875 13.890625 23.546875 14.234375 C 23.019531 14.441406 22.605469 14.875 22.636719 15.492188 C 22.660156 15.988281 22.96875 16.277344 23.351562 16.460938 C 23.679688 16.621094 24.054688 16.714844 24.414062 16.773438 C 25.722656 16.988281 27.183594 17.5625 27.371094 19.121094 C 27.5625 20.691406 26.21875 21.550781 24.882812 21.734375 L 24.882812 22.308594 C 24.882812 22.621094 24.628906 22.878906 24.3125 22.878906 C 24 22.878906 23.742188 22.621094 23.742188 22.308594 L 23.742188 21.726562 C 22.582031 21.542969 21.558594 20.820312 21.253906 19.601562 C 21.179688 19.296875 21.363281 18.988281 21.667969 18.910156 C 21.972656 18.835938 22.28125 19.019531 22.359375 19.328125 C 22.585938 20.246094 23.503906 20.652344 24.402344 20.632812 C 24.871094 20.621094 25.398438 20.5 25.785156 20.234375 C 26.089844 20.023438 26.296875 19.703125 26.242188 19.257812 C 26.1875 18.816406 25.9375 18.53125 25.617188 18.335938 C 25.207031 18.089844 24.699219 17.972656 24.230469 17.894531 L 24.226562 17.894531 C 22.953125 17.683594 21.570312 17.066406 21.5 15.550781 C 21.457031 14.71875 21.816406 14.050781 22.390625 13.597656 C 21.480469 13.449219 20.324219 13.214844 18.617188 12.890625 C 17.644531 14.121094 17.066406 15.675781 17.066406 17.359375 C 17.066406 18.425781 17.296875 19.441406 17.714844 20.355469 Z M 17.546875 6.882812 L 17.546875 11.53125 C 25.460938 12.996094 23.164062 12.996094 31.078125 11.53125 L 31.078125 6.882812 L 24.460938 8.644531 C 24.363281 8.667969 24.261719 8.667969 24.167969 8.644531 Z M 24.3125 2.980469 L 15.800781 5.242188 L 24.3125 7.503906 L 32.824219 5.242188 Z M 34.390625 10.203125 L 33.726562 10.585938 L 33.726562 12.878906 L 34.046875 12.636719 C 34.25 12.484375 34.53125 12.484375 34.734375 12.636719 L 35.054688 12.878906 L 35.054688 10.585938 Z M 4.542969 22.808594 L 4.542969 22.804688 C 4.4375 22.628906 4.207031 22.5625 4.03125 22.664062 L 2.230469 23.683594 L 2.226562 23.683594 C 2.050781 23.785156 1.984375 24.015625 2.089844 24.195312 L 7.378906 33.546875 C 7.480469 33.726562 7.710938 33.789062 7.890625 33.6875 L 9.6875 32.667969 L 9.691406 32.667969 C 9.871094 32.566406 9.933594 32.335938 9.832031 32.15625 Z M 3.808594 23.824219 C 4.214844 23.765625 4.59375 24.046875 4.65625 24.453125 C 4.714844 24.863281 4.433594 25.246094 4.023438 25.300781 C 3.617188 25.363281 3.234375 25.078125 3.175781 24.671875 C 3.117188 24.261719 3.398438 23.882812 3.808594 23.824219 Z M 3.808594 23.824219 "/></g></g></svg>