<svg xmlns="http://www.w3.org/2000/svg" xmlns:xlink="http://www.w3.org/1999/xlink" width="50" zoomAndPan="magnify" viewBox="0 0 37.5 37.499999" height="50" preserveAspectRatio="xMidYMid meet" version="1.2"><defs><clipPath id="5bf4df2b52"><path d="M 0 0 L 37.007812 0 L 37.007812 37.007812 L 0 37.007812 Z M 0 0 "/></clipPath><clipPath id="f0ef9632f3"><path d="M 6.746094 1 L 30.429688 1 L 30.429688 36.378906 L 6.746094 36.378906 Z M 6.746094 1 "/></clipPath></defs><g id="8f95f53f09"><g clip-rule="nonzero" clip-path="url(#5bf4df2b52)"><path style=" stroke:none;fill-rule:nonzero;fill:#ffffff;fill-opacity:1;" d="M 0 0 L 37.007812 0 L 37.007812 37.007812 L 0 37.007812 Z M 0 0 "/><path style=" stroke:none;fill-rule:nonzero;fill:#ffffff;fill-opacity:1;" d="M 0 0 L 37.007812 0 L 37.007812 37.007812 L 0 37.007812 Z M 0 0 "/></g><g clip-rule="nonzero" clip-path="url(#f0ef9632f3)"><path style=" stroke:none;fill-rule:nonzero;fill:#000000;fill-opacity:1;" d="M 28.871094 21.574219 L 30.117188 20.957031 C 30.324219 20.851562 30.429688 20.679688 30.429688 20.449219 L 30.429688 17.628906 C 30.429688 17.476562 30.375 17.34375 30.261719 17.230469 C 30.152344 17.121094 30.019531 17.066406 29.863281 17.066406 L 26.089844 17.066406 C 26.695312 16.644531 27.210938 16.128906 27.628906 15.519531 C 28.050781 14.910156 28.355469 14.25 28.539062 13.53125 C 28.722656 12.816406 28.777344 12.089844 28.699219 11.355469 C 28.625 10.617188 28.421875 9.917969 28.09375 9.257812 C 27.769531 8.59375 27.335938 8.007812 26.800781 7.496094 C 26.261719 6.988281 25.652344 6.589844 24.972656 6.296875 C 24.292969 6.007812 23.582031 5.84375 22.84375 5.804688 C 22.105469 5.769531 21.382812 5.859375 20.675781 6.082031 C 20.582031 5.679688 20.449219 5.292969 20.277344 4.917969 C 20.101562 4.539062 19.894531 4.1875 19.652344 3.851562 C 19.410156 3.515625 19.136719 3.210938 18.832031 2.929688 C 18.527344 2.652344 18.195312 2.40625 17.84375 2.191406 C 17.488281 1.980469 17.117188 1.804688 16.726562 1.664062 C 16.335938 1.523438 15.9375 1.425781 15.527344 1.367188 C 15.121094 1.308594 14.707031 1.289062 14.296875 1.3125 C 13.882812 1.335938 13.476562 1.398438 13.074219 1.503906 C 12.675781 1.605469 12.289062 1.75 11.917969 1.929688 C 11.546875 2.113281 11.195312 2.328125 10.867188 2.582031 C 10.539062 2.832031 10.242188 3.113281 9.96875 3.425781 C 9.695312 3.734375 9.457031 4.070312 9.253906 4.429688 C 9.050781 4.789062 8.882812 5.164062 8.753906 5.558594 C 8.625 5.949219 8.535156 6.351562 8.484375 6.761719 C 8.4375 7.171875 8.429688 7.582031 8.460938 7.992188 C 8.496094 8.40625 8.566406 8.808594 8.683594 9.207031 C 8.796875 9.605469 8.949219 9.984375 9.140625 10.351562 C 9.332031 10.71875 9.554688 11.0625 9.816406 11.386719 C 10.074219 11.707031 10.363281 12 10.683594 12.261719 C 11 12.527344 11.339844 12.757812 11.707031 12.953125 C 12.070312 13.148438 12.449219 13.304688 12.847656 13.425781 C 13.242188 13.542969 13.644531 13.625 14.058594 13.664062 C 14.46875 13.703125 14.878906 13.699219 15.292969 13.65625 C 15.703125 13.613281 16.105469 13.527344 16.5 13.40625 C 16.863281 14.941406 17.6875 16.160156 18.980469 17.066406 L 7.308594 17.066406 C 7.152344 17.066406 7.019531 17.121094 6.910156 17.230469 C 6.800781 17.34375 6.746094 17.476562 6.746094 17.628906 L 6.746094 20.449219 C 6.742188 20.679688 6.847656 20.851562 7.054688 20.957031 L 8.304688 21.574219 C 8.515625 21.679688 8.6875 21.835938 8.8125 22.039062 C 8.9375 22.242188 9 22.464844 9 22.703125 C 9 22.941406 8.9375 23.160156 8.8125 23.363281 C 8.6875 23.566406 8.515625 23.722656 8.304688 23.828125 C 7.824219 24.066406 7.445312 24.410156 7.164062 24.867188 C 6.882812 25.320312 6.742188 25.8125 6.746094 26.347656 L 6.746094 33.972656 C 6.746094 34.269531 6.800781 34.558594 6.914062 34.832031 C 7.03125 35.109375 7.195312 35.351562 7.40625 35.5625 C 7.617188 35.777344 7.859375 35.9375 8.136719 36.054688 C 8.414062 36.167969 8.699219 36.222656 9 36.222656 L 28.171875 36.222656 C 28.472656 36.222656 28.757812 36.167969 29.035156 36.054688 C 29.3125 35.9375 29.554688 35.777344 29.769531 35.5625 C 29.980469 35.351562 30.140625 35.109375 30.257812 34.832031 C 30.371094 34.558594 30.429688 34.269531 30.429688 33.972656 L 30.429688 26.347656 C 30.429688 25.8125 30.289062 25.320312 30.007812 24.867188 C 29.726562 24.410156 29.347656 24.066406 28.871094 23.828125 C 28.65625 23.722656 28.488281 23.566406 28.359375 23.363281 C 28.234375 23.160156 28.171875 22.941406 28.171875 22.703125 C 28.171875 22.464844 28.234375 22.242188 28.359375 22.039062 C 28.488281 21.835938 28.65625 21.679688 28.871094 21.574219 Z M 27.609375 11.996094 C 27.609375 12.621094 27.496094 13.222656 27.273438 13.804688 C 27.050781 14.386719 26.730469 14.910156 26.316406 15.375 C 25.898438 15.839844 25.414062 16.214844 24.859375 16.5 C 24.304688 16.785156 23.71875 16.964844 23.097656 17.035156 L 23.097656 15.859375 C 23.363281 15.792969 23.609375 15.679688 23.832031 15.523438 C 24.054688 15.363281 24.246094 15.171875 24.398438 14.945312 C 24.554688 14.71875 24.660156 14.472656 24.726562 14.207031 C 24.789062 13.9375 24.804688 13.667969 24.769531 13.398438 C 24.734375 13.125 24.652344 12.871094 24.523438 12.628906 C 24.394531 12.386719 24.230469 12.175781 24.023438 11.992188 C 23.816406 11.8125 23.585938 11.671875 23.328125 11.578125 C 23.074219 11.480469 22.808594 11.433594 22.535156 11.433594 C 22.382812 11.433594 22.242188 11.402344 22.101562 11.347656 C 21.964844 11.289062 21.84375 11.207031 21.734375 11.101562 C 21.628906 10.996094 21.550781 10.875 21.492188 10.738281 C 21.433594 10.597656 21.40625 10.457031 21.40625 10.304688 C 21.40625 10.15625 21.433594 10.011719 21.492188 9.875 C 21.550781 9.738281 21.628906 9.613281 21.734375 9.507812 C 21.84375 9.402344 21.964844 9.320312 22.101562 9.265625 C 22.242188 9.207031 22.382812 9.179688 22.535156 9.179688 C 22.683594 9.179688 22.828125 9.207031 22.964844 9.265625 C 23.101562 9.320312 23.226562 9.402344 23.332031 9.507812 C 23.4375 9.613281 23.519531 9.738281 23.574219 9.875 C 23.632812 10.011719 23.660156 10.15625 23.660156 10.304688 L 24.789062 10.304688 C 24.789062 10.058594 24.746094 9.816406 24.664062 9.578125 C 24.585938 9.34375 24.46875 9.128906 24.3125 8.929688 C 24.160156 8.734375 23.980469 8.566406 23.773438 8.429688 C 23.5625 8.292969 23.339844 8.195312 23.097656 8.132812 L 23.097656 6.957031 C 23.71875 7.027344 24.304688 7.207031 24.859375 7.492188 C 25.414062 7.777344 25.898438 8.152344 26.316406 8.617188 C 26.730469 9.082031 27.050781 9.605469 27.273438 10.1875 C 27.496094 10.769531 27.609375 11.371094 27.609375 11.996094 Z M 19.621094 6.53125 C 18.359375 7.203125 17.441406 8.195312 16.863281 9.5 C 16.882812 9.394531 16.890625 9.285156 16.894531 9.179688 C 16.894531 8.878906 16.835938 8.59375 16.722656 8.316406 C 16.609375 8.039062 16.445312 7.796875 16.234375 7.585938 C 16.023438 7.375 15.777344 7.210938 15.503906 7.097656 C 15.226562 6.984375 14.9375 6.925781 14.640625 6.925781 C 14.488281 6.925781 14.34375 6.898438 14.207031 6.839844 C 14.070312 6.78125 13.945312 6.699219 13.839844 6.59375 C 13.734375 6.488281 13.652344 6.367188 13.597656 6.230469 C 13.539062 6.089844 13.511719 5.949219 13.511719 5.796875 C 13.511719 5.648438 13.539062 5.503906 13.597656 5.367188 C 13.652344 5.230469 13.734375 5.105469 13.839844 5 C 13.945312 4.894531 14.070312 4.8125 14.207031 4.757812 C 14.34375 4.699219 14.488281 4.671875 14.640625 4.671875 C 14.789062 4.671875 14.933594 4.699219 15.070312 4.757812 C 15.207031 4.8125 15.332031 4.894531 15.4375 5 C 15.542969 5.105469 15.625 5.230469 15.679688 5.367188 C 15.738281 5.503906 15.765625 5.648438 15.765625 5.796875 L 16.894531 5.796875 C 16.894531 5.550781 16.851562 5.308594 16.769531 5.070312 C 16.691406 4.835938 16.574219 4.621094 16.417969 4.421875 C 16.265625 4.226562 16.085938 4.058594 15.878906 3.921875 C 15.667969 3.785156 15.445312 3.6875 15.203125 3.625 L 15.203125 2.453125 C 15.742188 2.511719 16.257812 2.652344 16.75 2.878906 C 17.242188 3.101562 17.6875 3.398438 18.082031 3.765625 C 18.480469 4.132812 18.8125 4.550781 19.074219 5.023438 C 19.335938 5.496094 19.519531 6 19.621094 6.53125 Z M 9.5625 7.488281 C 9.566406 6.867188 9.675781 6.261719 9.898438 5.679688 C 10.121094 5.097656 10.441406 4.574219 10.859375 4.109375 C 11.273438 3.644531 11.757812 3.269531 12.3125 2.984375 C 12.867188 2.699219 13.457031 2.519531 14.074219 2.449219 L 14.074219 3.625 C 13.808594 3.691406 13.566406 3.804688 13.339844 3.964844 C 13.117188 4.121094 12.925781 4.3125 12.773438 4.539062 C 12.621094 4.765625 12.511719 5.011719 12.445312 5.28125 C 12.382812 5.546875 12.367188 5.816406 12.402344 6.085938 C 12.4375 6.359375 12.519531 6.617188 12.648438 6.855469 C 12.777344 7.097656 12.945312 7.3125 13.148438 7.492188 C 13.355469 7.671875 13.585938 7.8125 13.84375 7.90625 C 14.097656 8.003906 14.363281 8.050781 14.640625 8.050781 C 14.789062 8.050781 14.933594 8.082031 15.070312 8.136719 C 15.207031 8.195312 15.332031 8.277344 15.4375 8.382812 C 15.542969 8.488281 15.625 8.609375 15.679688 8.746094 C 15.738281 8.886719 15.765625 9.03125 15.765625 9.179688 C 15.765625 9.328125 15.738281 9.472656 15.679688 9.609375 C 15.625 9.75 15.542969 9.871094 15.4375 9.976562 C 15.332031 10.082031 15.207031 10.164062 15.070312 10.21875 C 14.933594 10.277344 14.789062 10.304688 14.640625 10.304688 C 14.488281 10.304688 14.34375 10.277344 14.207031 10.21875 C 14.070312 10.164062 13.945312 10.082031 13.839844 9.976562 C 13.734375 9.871094 13.652344 9.75 13.597656 9.609375 C 13.539062 9.472656 13.511719 9.328125 13.511719 9.179688 L 12.382812 9.179688 C 12.382812 9.429688 12.425781 9.671875 12.507812 9.90625 C 12.589844 10.140625 12.707031 10.359375 12.859375 10.554688 C 13.011719 10.75 13.191406 10.917969 13.402344 11.054688 C 13.609375 11.191406 13.832031 11.289062 14.074219 11.351562 L 14.074219 12.527344 C 13.457031 12.457031 12.867188 12.277344 12.3125 11.992188 C 11.757812 11.707031 11.273438 11.332031 10.859375 10.867188 C 10.441406 10.402344 10.121094 9.878906 9.898438 9.296875 C 9.675781 8.714844 9.566406 8.113281 9.5625 7.488281 Z M 15.203125 12.527344 L 15.203125 11.351562 C 15.792969 11.199219 16.246094 10.859375 16.5625 10.339844 C 16.410156 10.878906 16.332031 11.433594 16.332031 11.996094 C 16.332031 12.085938 16.339844 12.171875 16.34375 12.261719 C 15.972656 12.394531 15.59375 12.480469 15.203125 12.527344 Z M 17.457031 11.996094 C 17.460938 11.371094 17.570312 10.769531 17.792969 10.1875 C 18.015625 9.605469 18.335938 9.082031 18.753906 8.617188 C 19.167969 8.152344 19.652344 7.777344 20.207031 7.492188 C 20.761719 7.207031 21.351562 7.027344 21.96875 6.957031 L 21.96875 8.132812 C 21.703125 8.199219 21.460938 8.3125 21.234375 8.472656 C 21.011719 8.628906 20.820312 8.820312 20.667969 9.046875 C 20.515625 9.273438 20.40625 9.519531 20.339844 9.789062 C 20.277344 10.054688 20.261719 10.324219 20.296875 10.59375 C 20.332031 10.867188 20.414062 11.121094 20.542969 11.363281 C 20.671875 11.605469 20.839844 11.816406 21.042969 12 C 21.25 12.179688 21.480469 12.320312 21.738281 12.414062 C 21.996094 12.511719 22.257812 12.558594 22.535156 12.558594 C 22.683594 12.558594 22.828125 12.589844 22.964844 12.644531 C 23.101562 12.703125 23.226562 12.785156 23.332031 12.890625 C 23.4375 12.996094 23.519531 13.117188 23.574219 13.253906 C 23.632812 13.394531 23.660156 13.539062 23.660156 13.6875 C 23.660156 13.835938 23.632812 13.980469 23.574219 14.117188 C 23.519531 14.257812 23.4375 14.378906 23.332031 14.484375 C 23.226562 14.589844 23.101562 14.671875 22.964844 14.726562 C 22.828125 14.785156 22.683594 14.8125 22.535156 14.8125 C 22.382812 14.8125 22.242188 14.785156 22.101562 14.726562 C 21.964844 14.671875 21.84375 14.589844 21.734375 14.484375 C 21.628906 14.378906 21.550781 14.257812 21.492188 14.117188 C 21.433594 13.980469 21.40625 13.835938 21.40625 13.6875 L 20.277344 13.6875 C 20.277344 13.9375 20.320312 14.179688 20.402344 14.414062 C 20.484375 14.648438 20.601562 14.863281 20.753906 15.0625 C 20.90625 15.257812 21.085938 15.425781 21.296875 15.5625 C 21.503906 15.699219 21.726562 15.796875 21.96875 15.859375 L 21.96875 17.035156 C 21.351562 16.964844 20.761719 16.785156 20.207031 16.5 C 19.652344 16.214844 19.167969 15.839844 18.753906 15.375 C 18.335938 14.910156 18.015625 14.386719 17.792969 13.804688 C 17.570312 13.222656 17.460938 12.621094 17.457031 11.996094 Z M 28.171875 35.097656 L 9 35.097656 C 8.851562 35.097656 8.707031 35.070312 8.566406 35.011719 C 8.429688 34.953125 8.308594 34.875 8.203125 34.769531 C 8.097656 34.660156 8.015625 34.539062 7.957031 34.402344 C 7.902344 34.265625 7.871094 34.121094 7.871094 33.972656 L 29.300781 33.972656 C 29.300781 34.121094 29.273438 34.265625 29.214844 34.402344 C 29.15625 34.539062 29.074219 34.660156 28.96875 34.769531 C 28.863281 34.875 28.742188 34.953125 28.605469 35.011719 C 28.464844 35.070312 28.324219 35.097656 28.171875 35.097656 Z M 28.367188 24.835938 C 28.652344 24.980469 28.878906 25.1875 29.050781 25.460938 C 29.21875 25.730469 29.300781 26.027344 29.300781 26.347656 L 29.300781 32.84375 L 7.871094 32.84375 L 7.871094 26.347656 C 7.871094 26.027344 7.953125 25.730469 8.125 25.460938 C 8.292969 25.1875 8.519531 24.980469 8.808594 24.835938 C 9.46875 24.507812 9.886719 23.984375 10.054688 23.265625 L 27.117188 23.265625 C 27.285156 23.984375 27.703125 24.507812 28.367188 24.835938 Z M 27.117188 22.136719 L 10.054688 22.136719 C 9.886719 21.417969 9.46875 20.894531 8.808594 20.566406 L 7.871094 20.101562 L 7.871094 18.195312 L 29.300781 18.195312 L 29.300781 20.101562 L 28.367188 20.566406 C 27.703125 20.894531 27.285156 21.417969 27.117188 22.136719 Z M 27.117188 22.136719 "/></g><path style=" stroke:none;fill-rule:nonzero;fill:#000000;fill-opacity:1;" d="M 11.253906 26.644531 L 11.253906 30.027344 L 12.382812 30.027344 L 12.382812 28.898438 L 13.511719 28.898438 L 13.511719 27.773438 L 12.382812 27.773438 L 12.382812 27.210938 L 13.511719 27.210938 L 13.511719 26.082031 L 11.820312 26.082031 C 11.664062 26.082031 11.53125 26.136719 11.421875 26.246094 C 11.3125 26.359375 11.253906 26.492188 11.253906 26.644531 Z M 11.253906 26.644531 "/><path style=" stroke:none;fill-rule:nonzero;fill:#000000;fill-opacity:1;" d="M 16.332031 28.898438 L 15.203125 28.898438 L 15.203125 26.082031 L 14.074219 26.082031 L 14.074219 29.464844 C 14.074219 29.617188 14.128906 29.75 14.238281 29.863281 C 14.351562 29.972656 14.484375 30.027344 14.640625 30.027344 L 16.894531 30.027344 C 17.050781 30.027344 17.183594 29.972656 17.292969 29.863281 C 17.402344 29.75 17.457031 29.617188 17.457031 29.464844 L 17.457031 26.082031 L 16.332031 26.082031 Z M 16.332031 28.898438 "/><path style=" stroke:none;fill-rule:nonzero;fill:#000000;fill-opacity:1;" d="M 20.84375 28.898438 L 20.738281 28.898438 L 20.265625 26.535156 C 20.238281 26.402344 20.175781 26.292969 20.070312 26.210938 C 19.96875 26.125 19.847656 26.082031 19.714844 26.082031 L 18.585938 26.082031 C 18.429688 26.082031 18.296875 26.136719 18.1875 26.246094 C 18.078125 26.359375 18.023438 26.492188 18.023438 26.644531 L 18.023438 30.027344 L 19.148438 30.027344 L 19.148438 27.210938 L 19.253906 27.210938 L 19.726562 29.574219 C 19.753906 29.707031 19.816406 29.816406 19.921875 29.898438 C 20.023438 29.984375 20.144531 30.027344 20.277344 30.027344 L 21.40625 30.027344 C 21.5625 30.027344 21.695312 29.972656 21.804688 29.863281 C 21.914062 29.75 21.96875 29.617188 21.96875 29.464844 L 21.96875 26.082031 L 20.84375 26.082031 Z M 20.84375 28.898438 "/><path style=" stroke:none;fill-rule:nonzero;fill:#000000;fill-opacity:1;" d="M 23.945312 26.082031 L 23.097656 26.082031 C 22.941406 26.082031 22.808594 26.136719 22.699219 26.246094 C 22.589844 26.359375 22.535156 26.492188 22.535156 26.644531 L 22.535156 29.464844 C 22.535156 29.617188 22.589844 29.75 22.699219 29.863281 C 22.808594 29.972656 22.941406 30.027344 23.097656 30.027344 L 23.945312 30.027344 C 24.207031 30.027344 24.457031 29.976562 24.699219 29.875 C 24.941406 29.777344 25.152344 29.632812 25.339844 29.449219 C 25.523438 29.265625 25.667969 29.050781 25.765625 28.808594 C 25.867188 28.566406 25.917969 28.316406 25.917969 28.054688 C 25.917969 27.792969 25.867188 27.542969 25.765625 27.300781 C 25.667969 27.058594 25.523438 26.84375 25.339844 26.660156 C 25.152344 26.476562 24.941406 26.332031 24.699219 26.234375 C 24.457031 26.132812 24.207031 26.082031 23.945312 26.082031 Z M 23.945312 28.898438 L 23.660156 28.898438 L 23.660156 27.210938 L 23.945312 27.210938 C 24.175781 27.210938 24.375 27.292969 24.542969 27.457031 C 24.707031 27.621094 24.789062 27.820312 24.789062 28.054688 C 24.789062 28.289062 24.707031 28.488281 24.542969 28.652344 C 24.375 28.816406 24.175781 28.898438 23.945312 28.898438 Z M 23.945312 28.898438 "/></g></svg>