<?xml version="1.0" encoding="UTF-8"?>
<svg id="Layer_1" data-name="Layer 1" xmlns="http://www.w3.org/2000/svg" viewBox="0 0 120 44.43">
  <defs>
    <style>
      .cls-1 {
        fill: #010101;
      }

      .cls-2 {
        fill: #fff;
      }

      .cls-3 {
        fill: #acc337;
      }

      .cls-4 {
        fill: #7d141d;
      }
    </style>
  </defs>
  <g>
    <g>
      <path class="cls-1" d="M66.62,25.94l.67-.98c.84-1.22,1.78-2.34,2.93-3.29,1.26-1.04,2.64-1.88,4.29-2.17s3.28-.28,4.8,.53c1.59,.84,2.28,2.38,1.9,4.14-.52,2.44-2.03,4.12-4.15,5.3-1.64,.91-3.43,1.38-5.27,1.69-2,.33-4.03,.43-6.05,.3-.36-.02-.53,.08-.68,.42-.47,1.13-1.09,2.18-2.08,2.96-.66,.52-1.39,.8-2.25,.63-.33-.06-.54-.23-.56-.55-.06-.81-.16-1.63-.12-2.43,.06-1.16,.23-2.31,.35-3.47,0-.07,0-.14,0-.27-.4,.32-.74,.6-1.1,.88-1.37,1.05-2.84,1.92-4.51,2.41-1,.29-2,.44-3.04,.18-.76-.19-1.3-.69-1.8-1.24-.66-.75-1.15-1.63-1.43-2.59-.02-.05-.03-.1-.06-.15-.37,.32-.75,.62-1.11,.96-1.13,1.09-2.38,2.03-3.83,2.67-1.43,.63-3.06,.66-4.52,.08-1.36-.51-2.19-1.93-2.1-3.45,.11-1.71,.86-3.15,1.9-4.45,1.5-1.87,3.34-3.33,5.57-4.26,2.14-.89,4.38-1.25,6.69-.89,.53,.1,1.05,.25,1.55,.45,.23,.08,.52,.22,.43,.57-.07,.23-.45,.34-.78,.2-1.02-.43-2.14-.58-3.24-.44-1.89,.25-3.48,1.15-4.87,2.42-1.06,.94-1.83,2.16-2.23,3.52-.21,.65-.21,1.35,0,2,.44,1.33,1.66,1.99,3.04,1.68,1.19-.27,2.05-1.03,2.7-1.99,.68-1,1.24-2.09,1.85-3.14,.31-.53,.62-1.05,.95-1.58,.09-.14,.19-.25,.32-.35,.41-.32,.88-.25,1.09,.22,.27,.62,.5,1.26,.68,1.9,.35,1.19,.52,2.43,1.07,3.55,.22,.45,.49,.87,.79,1.26,.69,.87,1.68,.95,2.84,.56,1.01-.34,1.78-1.03,2.6-1.67,.65-.5,.94-1.1,1.09-1.89,.78-4.06,2.08-8,3.86-11.73,1.11-2.34,2.46-4.52,4.31-6.36,1.22-1.21,2.58-2.22,4.25-2.75,.93-.3,1.91-.43,2.88-.38,1.05,.06,1.52,.7,1.37,1.87-.11,.84-.42,1.61-.79,2.37-.95,1.95-2.19,3.72-3.46,5.47-1.82,2.51-3.8,4.89-5.83,7.22-.31,.35-.41,.74-.49,1.17-.17,.95-.34,1.89-.51,2.84l.08,.04Zm1.03,4.62c1.52-.02,2.69-.25,3.78-.8,1.63-.82,2.77-2.14,3.63-3.71,.46-.84,.82-1.72,.8-2.71-.01-1.1-.66-1.83-1.74-2-.48-.07-.98-.02-1.43,.16-.89,.32-1.66,.85-2.36,1.47-1.55,1.35-2.85,2.93-4.01,4.62-.08,.13-.13,.27-.15,.41-.15,.65-.26,1.31-.43,1.95-.07,.26,.01,.33,.22,.37,.67,.1,1.33,.2,1.7,.26Zm.05-10.42c.08-.06,.15-.12,.22-.19,1.81-2.18,3.58-4.38,5.15-6.73,.92-1.38,1.79-2.8,2.62-4.23,.39-.67,.68-1.41,.69-2.22,0-.4-.23-.68-.62-.64-.49,.05-1,.11-1.44,.3-1.09,.47-1.82,1.36-2.48,2.31-1.01,1.46-1.69,3.08-2.24,4.75-.57,1.71-1.04,3.46-1.55,5.2-.13,.46-.23,.92-.36,1.46h0Z"/>
      <path class="cls-1" d="M106.51,28.09c-.19,.2-.34,.35-.48,.51-1.17,1.27-2.51,2.34-4.07,3.1-1.69,.82-3.43,.92-5.15,.1-1.02-.49-1.61-1.35-1.76-2.48-.02-.17-.05-.33-.08-.57-.13,.1-.22,.17-.31,.25-1.44,1.24-3.09,2.21-4.87,2.87-1.09,.41-2.25,.56-3.41,.43-1.31-.14-2.22-.89-2.85-2-.63-1.11-.84-2.32-.95-3.56-.23-2.64,.1-5.25,.66-7.82,.22-1,.64-1.97,1.04-2.93,.65-1.59,1.44-3.12,2.38-4.56,1.16-1.77,2.49-3.4,4.24-4.64,1.69-1.2,3.55-1.92,5.66-1.85,.32,0,.63,.05,.94,.15,.86,.29,1.12,.89,1.07,1.83-.06,1.14-.53,2.15-1.06,3.13-1.25,2.33-2.8,4.47-4.46,6.51-1.71,2.11-3.49,4.15-5.23,6.22-.1,.12-.17,.26-.18,.42-.07,1.42-.06,2.84,.32,4.23,.14,.49,.33,.96,.57,1.4,.56,1.05,1.58,1.31,2.71,.98,1.5-.44,2.72-1.34,3.83-2.42,.08-.08,.14-.18,.18-.29,.49-1.66,1.47-3.02,2.67-4.22,1.4-1.4,3.01-2.54,4.88-3.25,2.07-.79,4.2-1.11,6.39-.76,.57,.09,1.11,.32,1.65,.52,.18,.07,.4,.2,.33,.47-.06,.2-.43,.34-.68,.26-.33-.1-.66-.23-1-.32-1.3-.34-2.68-.26-3.93,.22-1.99,.77-3.64,1.98-4.76,3.82-.53,.87-.92,1.8-.91,2.86,.03,1.81,1.44,2.94,3.2,2.54,.9-.2,1.59-.74,2.2-1.38,.73-.77,1.25-1.67,1.74-2.61,.41-.79,.85-1.56,1.28-2.34,.11-.2,.25-.39,.41-.56,.48-.54,1.07-.45,1.35,.22,.2,.49,.37,.99,.51,1.5,.33,1.13,.6,2.27,.97,3.38,.18,.54,.51,1.05,.84,1.52,.67,.96,1.51,1.08,2.59,.82,.92-.22,1.72-.71,2.43-1.33,.49-.42,.97-.86,1.47-1.26,.14-.1,.32-.16,.5-.16,.14,.01,.27,.09,.34,.21,.02,.14-.03,.28-.13,.38-.7,.65-1.4,1.32-2.16,1.92-1.34,1.1-2.88,1.93-4.54,2.43-.91,.27-1.85,.41-2.79,.23-1.14-.22-1.9-1.01-2.5-1.92-.38-.59-.63-1.26-.94-1.9-.04-.08-.07-.18-.13-.35Zm-18.71-6.87l.11,.06c.05-.07,.09-.14,.15-.2,1.62-2.02,3.28-4.02,4.86-6.08,1.33-1.73,2.59-3.51,3.53-5.5,.35-.74,.66-1.49,.63-2.34-.02-.39-.18-.67-.54-.82-.5-.22-1.02-.17-1.52-.04-.98,.26-1.68,.92-2.32,1.66-1.29,1.48-2.13,3.22-2.84,5.03-.87,2.29-1.5,4.66-1.88,7.07-.07,.39-.11,.77-.16,1.16h0Z"/>
      <path class="cls-1" d="M35.07,5.69c-.31-.02-.59-.04-.88-.05-3.03-.15-6.07-.26-9.1-.45-1.46-.08-2.91-.26-4.35-.52-2.5-.47-4.72-1.55-6.47-3.45-.3-.33-.54-.72-.85-1.14,.12-.01,.23-.01,.35,0,1.75,.41,3.53,.6,5.32,.7,1.92,.12,3.85,.18,5.78,.24,1.29,.04,2.59,.06,3.88,.04,2.52-.05,5.04-.11,7.56-.2,1.84-.06,3.68-.15,5.52-.24,2.65-.14,5.31-.31,7.96-.43,1.82-.08,3.64-.13,5.46-.1,.62,.03,1.23,.2,1.79,.49,1.16,.59,1.44,1.83,.73,2.95-.58,.91-1.4,1.52-2.49,1.64-1.65,.18-3.31,.37-4.97,.41-3.64,.1-7.29,.13-10.93,.17-.76,0-1.52-.02-2.29-.05-.2,0-.3,.05-.34,.27-.48,2.77-.98,5.54-1.44,8.32-.23,1.39-.36,2.79-.56,4.18-.12,.79-.15,1.61-.41,2.34-.49,1.36-.55,2.77-.76,4.16-.32,2.11-.64,4.21-.93,6.32-.11,.82-.13,1.64-.17,2.47-.03,.57-.14,1.11-.48,1.59-.31,.44-.73,.44-.92-.05-.18-.44-.28-.9-.3-1.37-.04-1.88,.16-3.75,.44-5.6,.23-1.52,.44-3.06,.69-4.58,.13-.78,.35-1.55,.49-2.33,.28-1.54,.54-3.08,.8-4.63,.31-1.85,.59-3.7,.91-5.54,.3-1.74,.65-3.47,.97-5.21,.01-.11,.02-.23,.02-.34Z"/>
    </g>
    <g>
      <path class="cls-1" d="M27.7,22.38c-.09,3.63-1.44,6.97-4.2,9.71-1.69,1.71-3.83,2.93-6.17,3.5-4.16,1.02-8.01,.3-11.51-2.18-2.58-1.82-4.31-4.28-5.23-7.3C.01,24.18-.15,22.14,.14,20.14c.3-2.32,1.19-4.52,2.58-6.4,1.76-2.39,4.04-4.1,6.88-4.99,4.33-1.36,8.41-.81,12.15,1.79,2.78,1.94,4.57,4.6,5.46,7.87,.33,1.22,.48,2.47,.49,3.97Zm-26.72-.09v.32c0,.11,.02,.23,.02,.35,.14,2.94,1.16,5.55,3.07,7.77,2.76,3.2,6.28,4.75,10.52,4.67,2.87-.04,5.64-1.04,7.87-2.83,3.02-2.39,4.71-5.52,5-9.38,.21-2.81-.42-5.42-1.95-7.78-2.14-3.29-5.17-5.28-9.04-5.95-3.4-.59-6.58,.02-9.46,1.91C3.09,13.93,1.13,17.62,.99,22.28h0Z"/>
      <path class="cls-4" d="M12.71,19.12c-.56,.05-1.08,.07-1.59,.15-1.18,.19-2.36,.41-3.53,.6-.45,.08-.9,.13-1.36,.15-.62,.04-1.26-.35-1.47-.87,.25-.05,.49-.1,.73-.14,2.3-.39,4.6-.77,6.89-1.15,.14,0,.25-.11,.25-.25,0-.01,0-.03,0-.04-.02-1.13-.01-2.27-.07-3.4-.01-.31-.2-.61-.32-.91s-.33-.57-.41-.88c-.08-.29,.09-.58,.38-.66,.09-.02,.18-.03,.27,0,.6,.16,1.19,.37,1.76,.62,.49,.21,.71,.77,.51,1.26-.43,1.22-.45,2.49-.61,3.75-.03,.25,.13,.22,.28,.2,.62-.09,1.23-.2,1.85-.28,1.2-.15,2.39-.33,3.6-.38,.59-.02,1.18,.18,1.76,.35,.23,.06,.43,.27,.61,.44,.19,.17,.25,.44,.14,.67-.09,.26-.33,.43-.6,.44-.13,0-.25,0-.38-.01-1.67-.29-3.34-.14-5.01,0-.69,.06-1.37,.14-2.06,.2-.19,.02-.26,.09-.25,.28,.03,.74,.06,1.48,.09,2.22,0,.23,.07,.32,.35,.29,.91-.1,1.83-.17,2.75-.21,.45-.02,.89,.12,1.24,.4,.1,.08,.22,.17,.25,.28,.06,.22,.14,.49,.06,.68-.05,.13-.35,.23-.53,.23-.78,0-1.57-.04-2.35-.1-1.08-.08-2.14,.09-3.19,.28-.76,.14-1.51,.34-2.27,.48-.91,.16-1.8,.12-2.55-.55-.1-.11-.2-.23-.27-.37,.14-.05,.28-.15,.42-.15,1.27-.06,2.53-.24,3.76-.56,.99-.25,.83,.04,.84-1.03v-2.02Z"/>
      <path class="cls-4" d="M16.89,30.59c-1.37-.1-2.75-.05-4.12,.16-.62,.1-1.23,.22-1.85,.32-.19,.03-.26,.12-.28,.31-.02,.25-.09,.49-.2,.72-.22,.4-.59,.42-.82,.02-.21-.37-.37-.76-.47-1.17-.17-.71-.23-1.44-.41-2.15-.12-.47-.28-.92-.48-1.36-.15-.35-.38-.66-.54-1.01-.09-.21-.16-.45,.03-.66,.17-.21,.46-.3,.71-.21,2.11,.59,4.2,.27,6.27-.23,.63-.15,1.25-.35,1.89-.42,.42-.04,.84,.01,1.23,.15,.46,.17,.9,.39,1.31,.65,.64,.38,.72,.84,.23,1.4-.24,.27-.49,.53-.76,.76-.56,.48-.69,1.09-.53,1.78,0,.01,0,.02,0,.03,.17,.68,.02,.87-.68,.88-.18,0-.36,0-.55,0Zm-6.79-3.47c.3,.93,.48,1.82,.41,2.75-.01,.18,.07,.25,.25,.23,.24-.02,.49-.02,.73-.04,1.13-.12,2.26-.17,3.37-.38,1-.19,1.51-.83,1.53-1.65,.01-.42,0-.85,.02-1.27,.01-.25-.08-.31-.32-.28-1.45,.14-2.91,.27-4.36,.42-.53,.05-1.05,.14-1.64,.22Z"/>
    </g>
    <rect class="cls-3" x="29.66" y="36.73" width="90.34" height="7.7"/>
    <g>
      <path class="cls-2" d="M41.4,38.1v.97h-2.03v1.05h1.52v.95h-1.52v2.02h-1.22v-4.99h3.25Z"/>
      <path class="cls-2" d="M48.85,43.09l-1.04-1.88h-.29v1.88h-1.22v-4.99h2.04c.39,0,.73,.07,1.01,.21,.28,.14,.48,.33,.62,.57,.14,.24,.21,.51,.21,.8,0,.33-.09,.63-.28,.89-.19,.26-.46,.45-.83,.55l1.15,1.98h-1.37Zm-1.33-2.74h.75c.22,0,.39-.05,.5-.16,.11-.11,.17-.26,.17-.46s-.06-.34-.17-.45c-.11-.11-.28-.16-.5-.16h-.75v1.24Z"/>
      <path class="cls-2" d="M58.31,42.21h-1.86l-.3,.88h-1.27l1.81-4.99h1.41l1.81,4.99h-1.29l-.3-.88Zm-.31-.94l-.62-1.83-.61,1.83h1.23Z"/>
      <path class="cls-2" d="M69.17,43.09h-1.22l-2.03-3.08v3.08h-1.22v-4.99h1.22l2.03,3.09v-3.09h1.22v4.99Z"/>
      <path class="cls-2" d="M74.43,39.27c.21-.39,.51-.69,.89-.9,.38-.22,.81-.32,1.3-.32,.59,0,1.1,.16,1.52,.47,.42,.31,.7,.74,.85,1.28h-1.34c-.1-.21-.24-.37-.42-.48-.18-.11-.39-.16-.62-.16-.37,0-.68,.13-.91,.39-.23,.26-.35,.61-.35,1.04s.12,.78,.35,1.04c.23,.26,.54,.39,.91,.39,.23,0,.44-.05,.62-.16,.18-.11,.32-.27,.42-.48h1.34c-.14,.54-.42,.97-.85,1.28s-.93,.47-1.52,.47c-.48,0-.92-.11-1.3-.32-.38-.22-.68-.52-.89-.9-.21-.38-.32-.82-.32-1.32s.11-.93,.32-1.32Z"/>
      <path class="cls-2" d="M88.32,38.1v4.99h-1.22v-2.05h-1.89v2.05h-1.22v-4.99h1.22v1.95h1.89v-1.95h1.22Z"/>
      <path class="cls-2" d="M94.68,38.1v4.99h-1.22v-4.99h1.22Z"/>
      <path class="cls-2" d="M100.65,42.96c-.29-.12-.52-.29-.69-.53-.17-.23-.26-.51-.27-.84h1.29c.02,.18,.08,.33,.19,.42,.11,.1,.25,.15,.43,.15s.32-.04,.43-.12c.1-.08,.16-.2,.16-.34,0-.12-.04-.23-.12-.31-.08-.08-.18-.15-.31-.2-.12-.05-.29-.11-.52-.18-.32-.1-.59-.2-.79-.3-.2-.1-.38-.25-.53-.44-.15-.19-.22-.45-.22-.76,0-.46,.17-.83,.5-1.09,.34-.26,.77-.39,1.32-.39s.99,.13,1.33,.39c.34,.26,.52,.63,.54,1.1h-1.32c0-.16-.07-.29-.18-.38-.11-.09-.25-.14-.42-.14-.15,0-.27,.04-.36,.12-.09,.08-.14,.19-.14,.34,0,.16,.08,.29,.23,.38,.15,.09,.39,.19,.71,.29,.32,.11,.58,.21,.79,.31,.2,.1,.38,.24,.52,.43,.15,.19,.22,.43,.22,.73s-.07,.54-.22,.77c-.14,.23-.35,.42-.63,.55-.27,.14-.6,.21-.97,.21s-.69-.06-.98-.18Z"/>
      <path class="cls-2" d="M109.67,39.07v1.01h1.63v.94h-1.63v1.09h1.84v.97h-3.06v-4.99h3.06v.97h-1.84Z"/>
    </g>
  </g>
  <g>
    <g>
      <path class="cls-1" d="M3.64,0V.61h-.83V3.14h-.76V.61h-.83V0H3.64Z"/>
      <path class="cls-1" d="M7.58,0V3.14h-.76V1.26l-.7,1.88h-.62l-.71-1.88v1.88h-.76V0h.9l.88,2.17,.87-2.17h.9Z"/>
    </g>
    <g>
      <path class="cls-1" d="M116.98,18.11l-.73-1.25h-.48v1.25h-.4v-3.05h.98c.23,0,.43,.04,.58,.12,.16,.08,.28,.19,.36,.32,.08,.13,.12,.29,.12,.46,0,.21-.06,.4-.18,.56-.12,.16-.3,.27-.54,.32l.77,1.28h-.48Zm-1.21-1.57h.59c.22,0,.38-.05,.49-.16,.11-.11,.16-.25,.16-.43s-.05-.32-.16-.42c-.11-.1-.27-.15-.49-.15h-.59v1.16Z"/>
      <path class="cls-1" d="M116.38,19.58c-1.64,0-2.97-1.33-2.97-2.97s1.33-2.97,2.97-2.97,2.97,1.33,2.97,2.97-1.33,2.97-2.97,2.97Zm0-5.44c-1.36,0-2.47,1.11-2.47,2.47s1.11,2.47,2.47,2.47,2.47-1.11,2.47-2.47-1.11-2.47-2.47-2.47Z"/>
    </g>
  </g>
</svg>