<svg width="62" height="62" viewBox="0 0 62 62" fill="none" xmlns="http://www.w3.org/2000/svg">
    <path d="M37.419 13.502c-1.075.008-2.143.06-3.27.363a11.623 11.623 0 0 0-3.451 1.575c-1.484-.872-2.922-1.589-4.3-1.757-1.71-.211-3.3-.097-5.146-.059-2.189.045-3.617 1.163-5.934 2.058-2.315.891-5.297 1.755-9.505 1.755H3.875v18.649l1.09.544 3.572 1.758 12.715 14.167.06.06c1.454 1.437 3.414 1.794 5.146 1.695 1.735-.097 3.362-.604 4.662-1.391 2.862-1.726 10.656-7.145 10.656-7.145l.182-.123.123-.12c.922-.916 1.385-2.034 1.695-3.208l7.446-3.755 5.57-1.876 1.333-.426V17.438h-1.938a24.8 24.8 0 0 1-9.505-1.818c-2.317-.905-3.724-2.011-5.936-2.057-1.182-.024-2.254-.068-3.327-.06zm.058 3.876c.872-.008 1.88.038 3.15.06.204.007 2.066.802 4.662 1.817 2.195.862 5.245 1.627 8.961 1.875v12.352l-4.481 1.515h-.12l-.123.058-5.87 2.968a6.88 6.88 0 0 0-1.453-2.421l-.122-.182-8.235-10.11-1.21-1.515-1.516 1.21-5.206 4.24c-1.748 1.21-3.164.862-4.602.182-.416-.198-.393-.258-.726-.485l8.84-7.327.12-.12c2.626-2.604 4.24-3.505 5.631-3.875.698-.19 1.43-.235 2.3-.242zm-13.498.06a13.566 13.566 0 0 1 1.937.06c.508.06 1.083.492 1.575.666-.197.182-.34.287-.546.484l-.12.122-10.596 8.777-1.636 1.333 1.453 1.514s1.401 1.515 3.573 2.544c2.172 1.028 5.526 1.611 8.537-.485l.122-.122 3.753-3.086 7.145 8.778.06.122.06.059c1.28 1.265 1.25 3.255 0 4.543-.015.014.016.045 0 .058-.015.01-.27.161-.302.184l-2.544-3.452-3.148 2.301 2.484 3.329c-1.008.682-1.461 1.038-2.544 1.757l-2.602-3.512-3.15 2.301 2.483 3.329c-.22.136-.674.44-.848.546-.613.37-1.795.787-2.847.847-.99.054-1.747-.174-2.117-.484l-.06-.06-12.958-14.35-.243-.304-3.15-1.573V21.13c3.7-.242 6.774-.976 8.96-1.815 2.59-.992 4.438-1.81 4.663-1.817l2.605-.06z" fill="#8B0304"/>
</svg>
