<svg width="62" height="62" viewBox="0 0 62 62" fill="none" xmlns="http://www.w3.org/2000/svg">
    <path d="M31 56.833c-3.573 0-6.932-.678-10.075-2.035-3.143-1.358-5.877-3.198-8.202-5.521s-4.165-5.057-5.52-8.202C5.846 37.93 5.167 34.572 5.166 31c-.002-3.572.677-6.93 2.035-10.075 1.36-3.145 3.2-5.879 5.521-8.202 2.322-2.323 5.056-4.164 8.202-5.52C24.072 5.844 27.43 5.166 31 5.166h2.583v21.377a5.667 5.667 0 0 1 1.873 1.842c.474.754.71 1.625.71 2.614 0 1.42-.505 2.638-1.516 3.65-1.01 1.013-2.227 1.518-3.65 1.517-1.422-.002-2.638-.508-3.648-1.517-1.009-1.009-1.515-2.226-1.519-3.65 0-.99.237-1.873.71-2.648a5.029 5.029 0 0 1 1.874-1.808v-5.555c-2.24.603-4.09 1.82-5.554 3.65-1.464 1.832-2.196 3.952-2.196 6.361 0 2.842 1.012 5.274 3.035 7.298 2.024 2.023 4.456 3.035 7.298 3.035 2.842 0 5.274-1.011 7.298-3.035s3.035-4.456 3.035-7.298c0-1.55-.312-2.981-.937-4.294a11.246 11.246 0 0 0-2.55-3.456l3.681-3.681c1.507 1.42 2.713 3.11 3.617 5.07C46.048 26.6 46.5 28.72 46.5 31c0 4.306-1.507 7.965-4.52 10.98-3.015 3.013-6.674 4.52-10.98 4.52-4.305 0-7.965-1.507-10.98-4.52-3.013-3.015-4.52-6.674-4.52-10.98 0-3.875 1.227-7.244 3.681-10.106 2.454-2.862 5.533-4.596 9.236-5.2v-5.232c-5.124.646-9.42 2.907-12.886 6.782-3.467 3.875-5.2 8.46-5.198 13.756 0 5.77 2.002 10.656 6.007 14.66 4.004 4.005 8.89 6.007 14.66 6.007s10.656-2.003 14.66-6.007c4.005-4.004 6.007-8.89 6.007-14.66 0-2.97-.581-5.748-1.744-8.331a20.78 20.78 0 0 0-4.78-6.717l3.682-3.681c2.454 2.368 4.403 5.156 5.846 8.365 1.443 3.208 2.164 6.663 2.162 10.364 0 3.574-.678 6.932-2.035 10.075-1.357 3.143-3.198 5.877-5.52 8.202-2.324 2.325-5.058 4.166-8.203 5.523-3.145 1.357-6.503 2.035-10.075 2.033z" fill="#8B0304"/>
</svg>
