<svg width="62" height="62" viewBox="0 0 62 62" fill="none" xmlns="http://www.w3.org/2000/svg">
    <path d="M43.917 10.333a2.583 2.583 0 1 1 0-5.166H54.25a2.583 2.583 0 0 1 2.583 2.583v10.333a2.583 2.583 0 1 1-5.166 0v-4.097L36.7 28.951a2.583 2.583 0 0 1-3.652 0l-7.216-7.215L12.16 35.41a2.583 2.583 0 0 1-3.653-3.653l15.5-15.5a2.583 2.583 0 0 1 3.653 0l7.215 7.215 13.139-13.139h-4.097zm-31 36.167v7.75a2.583 2.583 0 0 1-5.167 0V46.5a2.583 2.583 0 1 1 5.167 0zm12.916-10.333a2.583 2.583 0 1 0-5.166 0V54.25a2.583 2.583 0 1 0 5.166 0V36.167zm10.334 2.583a2.583 2.583 0 0 1 2.583 2.583V54.25a2.584 2.584 0 0 1-5.167 0V41.333a2.583 2.583 0 0 1 2.584-2.583zm15.5-10.333a2.583 2.583 0 0 0-5.167 0V54.25a2.584 2.584 0 0 0 5.167 0V28.417z" fill="#8B0304"/>
</svg>
