<svg width="62" height="62" viewBox="0 0 62 62" fill="none" xmlns="http://www.w3.org/2000/svg">
    <path fill-rule="evenodd" clip-rule="evenodd" d="M7.75 7.75h40.042v6.458h-2.584v-3.875H10.333v29.709h27.625v2.583H7.75V7.75zM46.5 24.542a3.875 3.875 0 1 0 0-7.75 3.875 3.875 0 0 0 0 7.75zm2.623 2.596c1.678 0 3.006.754 3.875 1.92.813 1.09 1.156 2.44 1.234 3.687a9.816 9.816 0 0 1-.513 3.772c-.387 1.123-1.042 2.286-2.052 3.083v12.712a1.938 1.938 0 0 1-3.85.32l-1.666-10.007h-.385l-1.883 10.044a1.937 1.937 0 0 1-3.841-.356V33.883c-.259.394-.514.79-.765 1.187l-.1.16-.027.04-.006.012a1.938 1.938 0 0 1-1.646.913H31.04a1.938 1.938 0 0 1 0-3.875h5.395c.314-.485.727-1.116 1.161-1.748.453-.66.951-1.36 1.396-1.907.215-.267.457-.546.7-.775.118-.112.284-.258.485-.387.355-.235.77-.362 1.196-.365l7.75-.001z" fill="#8B0304"/>
</svg>
